# xmcd
#
# Track frame offsets: 
#        150
#        25945
#        49515
#        79055
#        96239
#        113197
#        137753
#        164110
#        179674
#        191285
#        215053
#        234835
#        262222
#
# Disc length: 3867 seconds
#
# Revision: 1
# Processed by: cddbd v1.5.2PL0 Copyright (c) Steve Scherf et al.
# Submitted via: ExactAudioCopy v1.0b3
#
DISCID=ba0f190d
DTITLE=The Mosier Brothers - On My Way
DYEAR=1900
DGENRE=Country
TTITLE0=On My Way
TTITLE1=I've Endured
TTITLE2=Any Mother Nature Would
TTITLE3=Old Dangerfield
TTITLE4=Leaves that are Green
TTITLE5=Nothing like a Hundred Miles
TTITLE6=Never Wonder Why
TTITLE7=Meet me on the Corner
TTITLE8=The Red Hand of Ulster
TTITLE9=The Courier
TTITLE10=Man in the Chair in the Sky
TTITLE11=Shining Man
TTITLE12=Gentle On My Mind
EXTD=
EXTT0=
EXTT1=
EXTT2=
EXTT3=
EXTT4=
EXTT5=
EXTT6=
EXTT7=
EXTT8=
EXTT9=
EXTT10=
EXTT11=
EXTT12=
PLAYORDER=
